<svg xmlns="http://www.w3.org/2000/svg" xmlns:xlink="http://www.w3.org/1999/xlink" width="500" zoomAndPan="magnify" viewBox="0 0 375 374.999991" height="500" preserveAspectRatio="xMidYMid meet" version="1.0"><defs><clipPath id="cda3b67d61"><path d="M 47 0 L 327.613281 0 L 327.613281 375 L 47 375 Z M 47 0 " clip-rule="nonzero"/></clipPath><clipPath id="03a0394de8"><path d="M 178.671875 244.300781 C 136.105469 219.507812 94.183594 195.09375 51.855469 170.445312 C 51.855469 175.84375 51.773438 180.628906 51.871094 185.402344 C 52.023438 192.710938 51.644531 200.113281 52.648438 207.316406 C 55.390625 226.945312 74.90625 244.183594 94.699219 244.402344 C 122.125 244.707031 149.5625 244.527344 177 244.554688 C 177.273438 244.554688 177.550781 244.472656 178.671875 244.300781 M 196.226562 244.355469 C 197.371094 244.484375 197.722656 244.5625 198.074219 244.5625 C 225.332031 244.546875 252.597656 244.746094 279.855469 244.429688 C 300.769531 244.183594 320.535156 226.304688 322.589844 205.492188 C 323.65625 194.777344 323.125 183.914062 323.304688 173.109375 C 323.324219 172.324219 323.242188 171.53125 323.1875 170.390625 C 280.859375 195.050781 238.871094 219.507812 196.214844 244.355469 M 51.953125 258.769531 C 51.816406 259.824219 51.691406 260.367188 51.691406 260.910156 C 51.683594 269.367188 51.410156 277.839844 51.789062 286.28125 C 52.015625 291.289062 52.628906 296.46875 54.199219 301.199219 C 60.726562 320.917969 77.984375 332.914062 99.328125 332.949219 C 124.988281 333.003906 150.636719 332.960938 176.296875 332.960938 L 178.085938 332.960938 C 178.136719 332.75 178.183594 332.542969 178.238281 332.335938 C 136.289062 307.90625 94.347656 283.464844 51.960938 258.769531 M 323.0625 258.742188 C 280.757812 283.390625 238.671875 307.90625 196.234375 332.632812 C 196.957031 332.851562 197.121094 332.949219 197.28125 332.949219 C 223.878906 332.960938 250.488281 333.25 277.074219 332.859375 C 301.597656 332.507812 320.300781 315.675781 322.871094 291.316406 C 323.992188 280.730469 323.0625 269.925781 323.0625 258.742188 M 190.53125 331.035156 C 197.941406 326.8125 205.179688 322.6875 212.417969 318.5625 C 248.707031 297.878906 285 277.183594 321.320312 256.558594 C 322.851562 255.683594 323.367188 254.773438 323.359375 253.058594 C 323.285156 242.714844 323.324219 232.371094 323.3125 222.027344 C 323.3125 221.359375 323.1875 220.699219 323.097656 219.699219 C 321.464844 222.398438 320.207031 224.816406 318.628906 227.007812 C 308.113281 241.648438 293.726562 248.878906 275.785156 248.933594 C 248.609375 249.011719 221.433594 248.949219 194.257812 248.949219 C 193.167969 248.949219 192.066406 248.949219 190.53125 248.949219 Z M 52.035156 219.691406 C 51.828125 220.800781 51.699219 221.144531 51.699219 221.496094 C 51.691406 232.207031 51.636719 242.929688 51.773438 253.644531 C 51.78125 254.628906 52.828125 255.980469 53.765625 256.523438 C 92.945312 278.941406 132.171875 301.289062 171.386719 323.636719 C 176 326.261719 180.621094 328.871094 185.9375 331.886719 L 185.9375 248.949219 L 182.714844 248.949219 C 154.980469 248.949219 127.253906 248.941406 99.527344 248.960938 C 87.089844 248.96875 75.851562 245.464844 66.113281 237.578125 C 60.285156 232.859375 55.816406 227.019531 52.035156 219.691406 M 145.367188 61.988281 C 145.285156 63.015625 145.222656 63.46875 145.222656 63.910156 C 145.214844 82.527344 145.070312 101.148438 145.257812 119.757812 C 145.511719 143.855469 156.65625 161.242188 178.425781 171.539062 C 182.210938 173.324219 186.929688 175.273438 190.710938 174.535156 C 213.636719 170.050781 231.480469 149.480469 233.121094 126.183594 C 233.691406 118.144531 233.546875 110.03125 233.367188 101.953125 C 233.292969 98.722656 234.792969 97.242188 237.570312 95.894531 C 237.570312 103.992188 237.535156 111.773438 237.582031 119.5625 C 237.734375 145.164062 225.710938 163.261719 203.417969 175.058594 C 202.941406 175.3125 202.488281 175.644531 201.570312 176.230469 C 210.964844 175.96875 219.277344 173.839844 226.902344 169.488281 C 244.214844 159.597656 254.304688 144.695312 255.460938 124.777344 C 256.316406 109.964844 255.695312 95.074219 255.6875 80.21875 C 255.6875 79.453125 255.261719 78.691406 255.035156 77.925781 C 254.304688 78.222656 253.449219 78.367188 252.851562 78.835938 C 247.09375 83.359375 241.398438 87.972656 235.632812 92.503906 C 221.152344 103.875 206.613281 115.15625 192.21875 126.628906 C 190.105469 128.304688 188.707031 128.449219 186.640625 126.800781 C 175.269531 117.746094 163.816406 108.792969 152.40625 99.804688 C 149.808594 97.753906 149.535156 96.671875 150.65625 92.988281 C 163.570312 103.152344 176.441406 113.269531 189.339844 123.414062 C 203.644531 112.132812 217.75 101.058594 231.757812 89.867188 C 232.671875 89.136719 233.339844 87.554688 233.355469 86.355469 C 233.5 79.117188 233.4375 71.878906 233.417969 64.640625 C 233.417969 63.9375 233.292969 63.222656 233.195312 62.140625 C 231.921875 63.0625 230.9375 63.738281 229.988281 64.46875 C 217.238281 74.226562 204.457031 83.957031 191.757812 93.785156 C 189.945312 95.191406 188.636719 95.226562 186.820312 93.792969 C 180.421875 88.730469 173.933594 83.785156 167.453125 78.828125 C 160.230469 73.3125 152.992188 67.828125 145.339844 62.023438 M 191.117188 242.324219 C 192.109375 241.8125 192.949219 241.414062 193.761719 240.960938 C 236.34375 216.703125 278.910156 192.433594 321.515625 168.226562 C 322.996094 167.386719 323.351562 166.429688 323.332031 164.878906 C 323.257812 158.667969 323.242188 152.46875 323.3125 146.257812 C 323.449219 135.328125 322.917969 124.460938 320.75 113.722656 C 314.515625 82.882812 299.628906 56.96875 275.632812 36.652344 C 244.25 10.046875 207.824219 -0.0820312 167.199219 5.550781 C 143.246094 8.871094 121.691406 18.386719 102.894531 33.636719 C 73.460938 57.511719 56.285156 88.339844 52.585938 126.113281 C 51.304688 139.15625 52.007812 152.394531 51.945312 165.554688 C 51.933594 166.464844 52.902344 167.730469 53.757812 168.246094 C 60.871094 172.441406 68.074219 176.492188 75.246094 180.582031 C 105.664062 197.921875 136.089844 215.25 166.503906 232.578125 C 173.003906 236.277344 179.511719 239.96875 186.398438 243.878906 C 186.488281 242.578125 186.605469 241.675781 186.613281 240.773438 C 186.804688 220.84375 186.972656 200.917969 187.199219 180.988281 C 187.21875 179.480469 186.730469 178.839844 185.269531 178.480469 C 177.523438 176.539062 170.429688 173.117188 164.203125 168.152344 C 149.222656 156.214844 141.261719 140.679688 141.0625 121.410156 C 140.960938 111.824219 141.125 102.230469 141.035156 92.636719 C 141.027344 91.617188 140.359375 90.292969 139.5625 89.640625 C 135.214844 86.074219 130.753906 82.644531 126.277344 79.234375 C 125.519531 78.65625 124.519531 78.386719 123.625 77.972656 C 123.371094 78.902344 122.902344 79.839844 122.902344 80.769531 C 122.894531 95.15625 122.839844 109.542969 123.027344 123.921875 C 123.308594 145.175781 138.472656 166.167969 158.535156 173.335938 C 160.917969 174.183594 163.410156 174.734375 165.765625 175.644531 C 166.621094 175.980469 167.21875 176.960938 167.929688 177.648438 C 167.027344 177.882812 166.125 178.316406 165.230469 178.28125 C 164.132812 178.234375 163.046875 177.800781 161.957031 177.511719 C 136.71875 170.851562 118.632812 147.042969 118.550781 120.273438 C 118.507812 106.925781 118.578125 93.566406 118.550781 80.21875 C 118.542969 77.609375 118.984375 75.335938 121.585938 74.082031 C 124.113281 72.871094 126.195312 73.59375 128.28125 75.308594 C 132.296875 78.613281 136.457031 81.734375 141.089844 85.34375 C 141.089844 83.785156 141.089844 82.890625 141.089844 81.996094 C 141.089844 75.417969 140.953125 68.828125 141.195312 62.257812 C 141.25 60.859375 142.34375 58.972656 143.515625 58.304688 C 144.589844 57.699219 146.441406 58.351562 147.921875 58.628906 C 148.507812 58.738281 149.011719 59.332031 149.535156 59.738281 C 162.128906 69.371094 174.746094 78.953125 187.246094 88.695312 C 188.988281 90.046875 189.933594 89.820312 191.503906 88.59375 C 198.835938 82.871094 206.261719 77.277344 213.652344 71.636719 C 219.25 67.355469 224.753906 62.960938 230.503906 58.890625 C 231.695312 58.042969 234.042969 57.828125 235.34375 58.421875 C 236.460938 58.945312 237.363281 61.003906 237.472656 62.449219 C 237.761719 66.375 237.570312 70.335938 237.570312 74.289062 C 237.570312 77.808594 237.570312 81.320312 237.570312 85.382812 C 242.09375 81.808594 246.15625 78.65625 250.152344 75.425781 C 252.183594 73.785156 254.277344 72.816406 256.867188 73.964844 C 259.640625 75.183594 260.125 77.527344 260.117188 80.246094 C 260.082031 93.695312 260.242188 107.140625 260.027344 120.582031 C 259.945312 125.335938 259.429688 130.183594 258.332031 134.796875 C 252.164062 160.5 230.683594 178.515625 204.304688 180.265625 C 200.050781 180.546875 195.765625 180.300781 191.144531 180.300781 Z M 189.683594 337.164062 C 189.683594 344.414062 189.691406 351.261719 189.671875 358.113281 C 189.664062 362.714844 189.738281 367.328125 189.492188 371.921875 C 189.429688 373.03125 188.382812 374.875 187.570312 375 C 185.566406 375.316406 185.339844 373.492188 185.359375 371.90625 C 185.441406 362.320312 185.53125 352.734375 185.613281 343.148438 C 185.628906 341.28125 185.613281 339.414062 185.613281 337.164062 C 184.328125 337.164062 183.238281 337.164062 182.136719 337.164062 C 153.183594 337.128906 124.21875 337.371094 95.277344 336.976562 C 71.816406 336.652344 50.933594 317.328125 47.992188 294.023438 C 47.601562 290.953125 47.414062 287.839844 47.414062 284.753906 C 47.378906 237 47.304688 189.238281 47.414062 141.484375 C 47.539062 97.304688 64.382812 60.6875 98.011719 32.128906 C 119.101562 14.214844 143.679688 3.410156 171.261719 0.804688 C 226.578125 -4.429688 270.777344 15.847656 303.113281 60.929688 C 318.648438 82.59375 326.90625 107.285156 327.25 133.984375 C 327.816406 177.785156 327.539062 221.585938 327.582031 265.394531 C 327.589844 273.761719 327.644531 282.128906 327.304688 290.484375 C 326.390625 312.878906 307.410156 333.5 285.136719 336.425781 C 281.707031 336.875 278.214844 337.09375 274.746094 337.101562 C 247.769531 337.15625 220.785156 337.128906 193.808594 337.128906 Z M 189.683594 337.164062 " clip-rule="nonzero"/></clipPath><clipPath id="b28ec3ec7b"><path d="M 0.28125 0 L 280.613281 0 L 280.613281 375 L 0.28125 375 Z M 0.28125 0 " clip-rule="nonzero"/></clipPath><clipPath id="50547d8270"><path d="M 131.671875 244.300781 C 89.105469 219.507812 47.183594 195.09375 4.855469 170.445312 C 4.855469 175.84375 4.773438 180.628906 4.871094 185.402344 C 5.023438 192.710938 4.644531 200.113281 5.648438 207.316406 C 8.390625 226.945312 27.90625 244.183594 47.699219 244.402344 C 75.125 244.707031 102.5625 244.527344 130 244.554688 C 130.273438 244.554688 130.550781 244.472656 131.671875 244.300781 M 149.226562 244.355469 C 150.371094 244.484375 150.722656 244.5625 151.074219 244.5625 C 178.332031 244.546875 205.597656 244.746094 232.855469 244.429688 C 253.769531 244.183594 273.535156 226.304688 275.589844 205.492188 C 276.65625 194.777344 276.125 183.914062 276.304688 173.109375 C 276.324219 172.324219 276.242188 171.53125 276.1875 170.390625 C 233.859375 195.050781 191.871094 219.507812 149.214844 244.355469 M 4.953125 258.769531 C 4.816406 259.824219 4.691406 260.367188 4.691406 260.910156 C 4.683594 269.367188 4.410156 277.839844 4.789062 286.28125 C 5.015625 291.289062 5.628906 296.46875 7.199219 301.199219 C 13.726562 320.917969 30.984375 332.914062 52.328125 332.949219 C 77.988281 333.003906 103.636719 332.960938 129.296875 332.960938 L 131.085938 332.960938 C 131.136719 332.75 131.183594 332.542969 131.238281 332.335938 C 89.289062 307.90625 47.347656 283.464844 4.960938 258.769531 M 276.0625 258.742188 C 233.757812 283.390625 191.671875 307.90625 149.234375 332.632812 C 149.957031 332.851562 150.121094 332.949219 150.28125 332.949219 C 176.878906 332.960938 203.488281 333.25 230.074219 332.859375 C 254.597656 332.507812 273.300781 315.675781 275.871094 291.316406 C 276.992188 280.730469 276.0625 269.925781 276.0625 258.742188 M 143.53125 331.035156 C 150.941406 326.8125 158.179688 322.6875 165.417969 318.5625 C 201.707031 297.878906 238 277.183594 274.320312 256.558594 C 275.851562 255.683594 276.367188 254.773438 276.359375 253.058594 C 276.285156 242.714844 276.324219 232.371094 276.3125 222.027344 C 276.3125 221.359375 276.1875 220.699219 276.097656 219.699219 C 274.464844 222.398438 273.207031 224.816406 271.628906 227.007812 C 261.113281 241.648438 246.726562 248.878906 228.785156 248.933594 C 201.609375 249.011719 174.433594 248.949219 147.257812 248.949219 C 146.167969 248.949219 145.066406 248.949219 143.53125 248.949219 Z M 5.035156 219.691406 C 4.828125 220.800781 4.699219 221.144531 4.699219 221.496094 C 4.691406 232.207031 4.636719 242.929688 4.773438 253.644531 C 4.78125 254.628906 5.828125 255.980469 6.765625 256.523438 C 45.945312 278.941406 85.171875 301.289062 124.386719 323.636719 C 129 326.261719 133.621094 328.871094 138.9375 331.886719 L 138.9375 248.949219 L 135.714844 248.949219 C 107.980469 248.949219 80.253906 248.941406 52.527344 248.960938 C 40.089844 248.96875 28.851562 245.464844 19.113281 237.578125 C 13.285156 232.859375 8.816406 227.019531 5.035156 219.691406 M 98.367188 61.988281 C 98.285156 63.015625 98.222656 63.46875 98.222656 63.910156 C 98.214844 82.527344 98.070312 101.148438 98.257812 119.757812 C 98.511719 143.855469 109.65625 161.242188 131.425781 171.539062 C 135.210938 173.324219 139.929688 175.273438 143.710938 174.535156 C 166.636719 170.050781 184.480469 149.480469 186.121094 126.183594 C 186.691406 118.144531 186.546875 110.03125 186.367188 101.953125 C 186.292969 98.722656 187.792969 97.242188 190.570312 95.894531 C 190.570312 103.992188 190.535156 111.773438 190.582031 119.5625 C 190.734375 145.164062 178.710938 163.261719 156.417969 175.058594 C 155.941406 175.3125 155.488281 175.644531 154.570312 176.230469 C 163.964844 175.96875 172.277344 173.839844 179.902344 169.488281 C 197.214844 159.597656 207.304688 144.695312 208.460938 124.777344 C 209.316406 109.964844 208.695312 95.074219 208.6875 80.21875 C 208.6875 79.453125 208.261719 78.691406 208.035156 77.925781 C 207.304688 78.222656 206.449219 78.367188 205.851562 78.835938 C 200.09375 83.359375 194.398438 87.972656 188.632812 92.503906 C 174.152344 103.875 159.613281 115.15625 145.21875 126.628906 C 143.105469 128.304688 141.707031 128.449219 139.640625 126.800781 C 128.269531 117.746094 116.816406 108.792969 105.40625 99.804688 C 102.808594 97.753906 102.535156 96.671875 103.65625 92.988281 C 116.570312 103.152344 129.441406 113.269531 142.339844 123.414062 C 156.644531 112.132812 170.75 101.058594 184.757812 89.867188 C 185.671875 89.136719 186.339844 87.554688 186.355469 86.355469 C 186.5 79.117188 186.4375 71.878906 186.417969 64.640625 C 186.417969 63.9375 186.292969 63.222656 186.195312 62.140625 C 184.921875 63.0625 183.9375 63.738281 182.988281 64.46875 C 170.238281 74.226562 157.457031 83.957031 144.757812 93.785156 C 142.945312 95.191406 141.636719 95.226562 139.820312 93.792969 C 133.421875 88.730469 126.933594 83.785156 120.453125 78.828125 C 113.230469 73.3125 105.992188 67.828125 98.339844 62.023438 M 144.117188 242.324219 C 145.109375 241.8125 145.949219 241.414062 146.761719 240.960938 C 189.34375 216.703125 231.910156 192.433594 274.515625 168.226562 C 275.996094 167.386719 276.351562 166.429688 276.332031 164.878906 C 276.257812 158.667969 276.242188 152.46875 276.3125 146.257812 C 276.449219 135.328125 275.917969 124.460938 273.75 113.722656 C 267.515625 82.882812 252.628906 56.96875 228.632812 36.652344 C 197.25 10.046875 160.824219 -0.0820312 120.199219 5.550781 C 96.246094 8.871094 74.691406 18.386719 55.894531 33.636719 C 26.460938 57.511719 9.285156 88.339844 5.585938 126.113281 C 4.304688 139.15625 5.007812 152.394531 4.945312 165.554688 C 4.933594 166.464844 5.902344 167.730469 6.757812 168.246094 C 13.871094 172.441406 21.074219 176.492188 28.246094 180.582031 C 58.664062 197.921875 89.089844 215.25 119.503906 232.578125 C 126.003906 236.277344 132.511719 239.96875 139.398438 243.878906 C 139.488281 242.578125 139.605469 241.675781 139.613281 240.773438 C 139.804688 220.84375 139.972656 200.917969 140.199219 180.988281 C 140.21875 179.480469 139.730469 178.839844 138.269531 178.480469 C 130.523438 176.539062 123.429688 173.117188 117.203125 168.152344 C 102.222656 156.214844 94.261719 140.679688 94.0625 121.410156 C 93.960938 111.824219 94.125 102.230469 94.035156 92.636719 C 94.027344 91.617188 93.359375 90.292969 92.5625 89.640625 C 88.214844 86.074219 83.753906 82.644531 79.277344 79.234375 C 78.519531 78.65625 77.519531 78.386719 76.625 77.972656 C 76.371094 78.902344 75.902344 79.839844 75.902344 80.769531 C 75.894531 95.15625 75.839844 109.542969 76.027344 123.921875 C 76.308594 145.175781 91.472656 166.167969 111.535156 173.335938 C 113.917969 174.183594 116.410156 174.734375 118.765625 175.644531 C 119.621094 175.980469 120.21875 176.960938 120.929688 177.648438 C 120.027344 177.882812 119.125 178.316406 118.230469 178.28125 C 117.132812 178.234375 116.046875 177.800781 114.957031 177.511719 C 89.71875 170.851562 71.632812 147.042969 71.550781 120.273438 C 71.507812 106.925781 71.578125 93.566406 71.550781 80.21875 C 71.542969 77.609375 71.984375 75.335938 74.585938 74.082031 C 77.113281 72.871094 79.195312 73.59375 81.28125 75.308594 C 85.296875 78.613281 89.457031 81.734375 94.089844 85.34375 C 94.089844 83.785156 94.089844 82.890625 94.089844 81.996094 C 94.089844 75.417969 93.953125 68.828125 94.195312 62.257812 C 94.25 60.859375 95.34375 58.972656 96.515625 58.304688 C 97.589844 57.699219 99.441406 58.351562 100.921875 58.628906 C 101.507812 58.738281 102.011719 59.332031 102.535156 59.738281 C 115.128906 69.371094 127.746094 78.953125 140.246094 88.695312 C 141.988281 90.046875 142.933594 89.820312 144.503906 88.59375 C 151.835938 82.871094 159.261719 77.277344 166.652344 71.636719 C 172.25 67.355469 177.753906 62.960938 183.503906 58.890625 C 184.695312 58.042969 187.042969 57.828125 188.34375 58.421875 C 189.460938 58.945312 190.363281 61.003906 190.472656 62.449219 C 190.761719 66.375 190.570312 70.335938 190.570312 74.289062 C 190.570312 77.808594 190.570312 81.320312 190.570312 85.382812 C 195.09375 81.808594 199.15625 78.65625 203.152344 75.425781 C 205.183594 73.785156 207.277344 72.816406 209.867188 73.964844 C 212.640625 75.183594 213.125 77.527344 213.117188 80.246094 C 213.082031 93.695312 213.242188 107.140625 213.027344 120.582031 C 212.945312 125.335938 212.429688 130.183594 211.332031 134.796875 C 205.164062 160.5 183.683594 178.515625 157.304688 180.265625 C 153.050781 180.546875 148.765625 180.300781 144.144531 180.300781 Z M 142.683594 337.164062 C 142.683594 344.414062 142.691406 351.261719 142.671875 358.113281 C 142.664062 362.714844 142.738281 367.328125 142.492188 371.921875 C 142.429688 373.03125 141.382812 374.875 140.570312 375 C 138.566406 375.316406 138.339844 373.492188 138.359375 371.90625 C 138.441406 362.320312 138.53125 352.734375 138.613281 343.148438 C 138.628906 341.28125 138.613281 339.414062 138.613281 337.164062 C 137.328125 337.164062 136.238281 337.164062 135.136719 337.164062 C 106.183594 337.128906 77.21875 337.371094 48.277344 336.976562 C 24.816406 336.652344 3.933594 317.328125 0.992188 294.023438 C 0.601562 290.953125 0.414062 287.839844 0.414062 284.753906 C 0.378906 237 0.304688 189.238281 0.414062 141.484375 C 0.539062 97.304688 17.382812 60.6875 51.011719 32.128906 C 72.101562 14.214844 96.679688 3.410156 124.261719 0.804688 C 179.578125 -4.429688 223.777344 15.847656 256.113281 60.929688 C 271.648438 82.59375 279.90625 107.285156 280.25 133.984375 C 280.816406 177.785156 280.539062 221.585938 280.582031 265.394531 C 280.589844 273.761719 280.644531 282.128906 280.304688 290.484375 C 279.390625 312.878906 260.410156 333.5 238.136719 336.425781 C 234.707031 336.875 231.214844 337.09375 227.746094 337.101562 C 200.769531 337.15625 173.785156 337.128906 146.808594 337.128906 Z M 142.683594 337.164062 " clip-rule="nonzero"/></clipPath><clipPath id="afceb520b4"><rect x="0" width="281" y="0" height="375"/></clipPath></defs><g clip-path="url(#cda3b67d61)"><g clip-path="url(#03a0394de8)"><g transform="matrix(1, 0, 0, 1, 47, 0)"><g clip-path="url(#afceb520b4)"><g clip-path="url(#b28ec3ec7b)"><g clip-path="url(#50547d8270)"><path fill="#142147" d="M 0.386719 0 L 280.613281 0 L 280.613281 374.839844 L 0.386719 374.839844 Z M 0.386719 0 " fill-opacity="1" fill-rule="nonzero"/></g></g></g></g></g></g></svg>